<svg width="45" height="37" viewBox="0 0 80 72" fill="none" xmlns="http://www.w3.org/2000/svg">
<path d="M72.558 72H7.442C5.392 72 3.412 71.122 2.012 69.59C0.560002 68.004 -0.159998 65.854 0.0320015 63.69L4.214 16.598C4.548 12.836 7.584 10 11.274 10H68.728C72.42 10 75.456 12.838 75.788 16.6L79.97 63.69C80.162 65.854 79.44 68.004 77.99 69.59C76.588 71.122 74.608 72 72.558 72Z" fill="#1F2329"/>
<path d="M65.262 64H14.738C11.022 64 8 60.756 8 56.77V48H72V56.77C72 60.756 68.978 64 65.262 64Z" fill="#263238"/>
<path d="M65.332 56H14.668C12.838 56 11.13 55.216 9.862 53.794C8.538 52.306 7.866 50.276 8.022 48.222L11.188 6.602C11.47 2.9 14.388 0 17.832 0H62.166C65.61 0 68.528 2.9 68.812 6.602L71.978 48.218C72.134 50.276 71.462 52.304 70.138 53.792C68.87 55.216 67.164 56 65.332 56Z" fill="#546E7A"/>
<path d="M9.712 26L8.022 48.22C7.866 50.276 8.538 52.304 9.862 53.792C11.13 55.216 12.838 56 14.668 56H65.332C67.162 56 68.87 55.216 70.138 53.794C71.462 52.306 72.134 50.276 71.978 48.22L70.288 26H9.712Z" fill="#455A64"/>
<path d="M50.378 28C46.504 23.472 36.962 24.242 36.962 21.222C36.962 19.754 38.02 18.674 40.25 18.674C42.482 18.674 44.176 20.158 46.478 20.158C47.77 20.158 49.42 19.618 49.42 17.776C49.42 14.81 43.384 14 40.212 14C35.982 14 30 15.664 30 22C30 25.294 32.282 26.926 35.268 28H35.266C39.288 29.446 44 30.04 44 32.876C44 34.734 41.966 35.976 39.616 35.976C36.306 35.976 33.69 33.998 31.856 33.998C30.408 34 28 34.494 28 37.166C28 41.376 37.656 42 41.192 42C43.306 42 52 40.74 52 32.614C52 30.626 51.364 29.15 50.378 28Z" fill="#FFC107"/>
<path d="M47.784 26H31.71C32.638 26.862 33.87 27.496 35.268 28H35.266C39.288 29.446 44 30.04 44 32.876C44 34.734 41.966 35.976 39.616 35.976C36.306 35.976 33.69 33.998 31.856 33.998C30.408 34 28 34.494 28 37.166C28 41.376 37.656 42 41.192 42C43.306 42 52 40.74 52 32.614C52 30.626 51.364 29.15 50.378 28C49.672 27.174 48.774 26.528 47.784 26Z" fill="#FFB300"/>
</svg>
